<svg width="327" height="118" viewBox="0 0 327 118" fill="none" xmlns="http://www.w3.org/2000/svg">
<g filter="url(#filter0_d_341_2430)">
<path d="M275.866 65.7404C276.506 65.4026 277.272 65.3999 277.914 65.7333L307.203 80.9208C308.794 81.7454 308.794 84.0203 307.203 84.845L277.914 100.032C277.272 100.366 276.506 100.363 275.866 100.025L247.07 84.8378C245.497 84.0086 245.497 81.7571 247.07 80.9279L275.866 65.7404Z" fill="black" fill-opacity="0.01"/>
</g>
<path d="M239 28.4735C239 24.5301 241.101 20.8855 244.514 18.9097L271.638 3.20582C275.063 1.2228 279.287 1.2228 282.712 3.20582L309.836 18.9097C313.249 20.8855 315.35 24.5301 315.35 28.4735V59.9349C315.35 63.8783 313.249 67.5229 309.836 69.4987L282.712 85.2026C279.287 87.1856 275.063 87.1856 271.638 85.2026L244.514 69.4987C241.101 67.5229 239 63.8783 239 59.9349V28.4735Z" fill="#E5F0FF"/>
<path d="M242.635 30.2735C242.635 26.3525 244.713 22.7252 248.095 20.7413L271.583 6.96345C275.035 4.93823 279.313 4.93823 282.766 6.96345L306.254 20.7413C309.636 22.7252 311.714 26.3525 311.714 30.2735V58.1348C311.714 62.0557 309.636 65.6831 306.254 67.6669L282.766 81.4448C279.313 83.47 275.035 83.47 271.583 81.4448L248.095 67.6669C244.713 65.6831 242.635 62.0557 242.635 58.1348V30.2735Z" fill="#9DBFF9"/>
<path d="M277.175 47.6339C277.175 43.4018 279.592 39.5413 283.399 37.6928L306.422 26.5142C308.868 25.3263 311.714 27.1082 311.714 29.8279V58.1353C311.714 62.0562 309.637 65.6836 306.255 67.6674L282.723 81.471C280.267 82.9115 277.175 81.1407 277.175 78.2937L277.175 64.4649L277.175 47.6339Z" fill="#5B8DEF"/>
<path d="M242.635 29.8364C242.635 27.1146 245.485 25.3327 247.932 26.5248L270.963 37.7455C274.763 39.5967 277.174 43.4533 277.174 47.6802V76.8739C277.174 76.8739 277.204 79.5353 277.816 80.4312C278.34 81.199 279.183 81.7297 279.946 81.8955C281.048 82.135 282.178 81.7685 282.178 81.7685V81.7685C279.09 83.5931 275.255 83.5991 272.161 81.7842L248.095 67.6672C244.713 65.6833 242.635 62.056 242.635 58.135V29.8364Z" fill="#0063F7"/>
<g filter="url(#filter1_d_341_2430)">
<path d="M161.866 65.7404C162.506 65.4026 163.272 65.3999 163.914 65.7333L193.203 80.9208C194.794 81.7454 194.794 84.0203 193.203 84.845L163.914 100.032C163.272 100.366 162.506 100.363 161.866 100.025L133.07 84.8378C131.497 84.0086 131.497 81.7571 133.07 80.9279L161.866 65.7404Z" fill="black" fill-opacity="0.01"/>
</g>
<path d="M125 28.4735C125 24.5301 127.101 20.8855 130.514 18.9097L157.638 3.20582C161.063 1.2228 165.287 1.2228 168.712 3.20582L195.836 18.9097C199.249 20.8855 201.35 24.5301 201.35 28.4735V59.9349C201.35 63.8783 199.249 67.5229 195.836 69.4987L168.712 85.2026C165.287 87.1856 161.063 87.1856 157.638 85.2026L130.514 69.4987C127.101 67.5229 125 63.8783 125 59.9349V28.4735Z" fill="#DADADA"/>
<path d="M128.635 30.2735C128.635 26.3525 130.713 22.7252 134.095 20.7413L157.583 6.96345C161.036 4.93823 165.313 4.93823 168.766 6.96345L192.254 20.7413C195.636 22.7252 197.714 26.3525 197.714 30.2735V58.1348C197.714 62.0557 195.636 65.6831 192.254 67.6669L168.766 81.4448C165.313 83.47 161.036 83.47 157.583 81.4448L134.095 67.6669C130.713 65.6831 128.635 62.0557 128.635 58.1348V30.2735Z" fill="#BBBBBB"/>
<path d="M163.175 47.6339C163.175 43.4018 165.592 39.5413 169.399 37.6928L192.421 26.5142C194.868 25.3263 197.714 27.1082 197.714 29.8279V58.1353C197.714 62.0562 195.636 65.6836 192.254 67.6674L168.722 81.471C166.267 82.9115 163.175 81.1407 163.175 78.2937L163.175 64.4649L163.175 47.6339Z" fill="#5D5D5D"/>
<path d="M128.635 29.8364C128.635 27.1146 131.485 25.3327 133.932 26.5248L156.964 37.7455C160.763 39.5967 163.175 43.4533 163.175 47.6802V76.8739C163.175 76.8739 163.204 79.5353 163.816 80.4312C164.341 81.199 165.184 81.7297 165.946 81.8955C167.048 82.135 168.179 81.7685 168.179 81.7685V81.7685C165.09 83.5931 161.255 83.5991 158.161 81.7842L134.095 67.6672C130.713 65.6833 128.635 62.056 128.635 58.135V29.8364Z" fill="black"/>
<g filter="url(#filter2_d_341_2430)">
<path d="M47.866 65.7404C48.5064 65.4026 49.2717 65.3999 49.9145 65.7333L79.2032 80.9208C80.7935 81.7454 80.7935 84.0203 79.2032 84.845L49.9145 100.032C49.2717 100.366 48.5064 100.363 47.866 100.025L19.0695 84.8378C17.4974 84.0086 17.4974 81.7571 19.0695 80.9279L47.866 65.7404Z" fill="#E4CECE" fill-opacity="0.15"/>
</g>
<path d="M11 28.4735C11 24.5301 13.1013 20.8855 16.5139 18.9097L43.6379 3.20582C47.063 1.2228 51.287 1.2228 54.7121 3.20582L81.836 18.9097C85.2487 20.8855 87.35 24.5301 87.35 28.4735V59.9349C87.35 63.8783 85.2487 67.5229 81.836 69.4987L54.7121 85.2026C51.287 87.1856 47.063 87.1856 43.6379 85.2026L16.5139 69.4987C13.1013 67.5229 11 63.8783 11 59.9349V28.4735Z" fill="#DADADA"/>
<path d="M14.6353 30.2735C14.6353 26.3525 16.7129 22.7252 20.0949 20.7413L43.5831 6.96345C47.0356 4.93823 51.3134 4.93823 54.7659 6.96345L78.2542 20.7413C81.6362 22.7252 83.7138 26.3525 83.7138 30.2735V58.1348C83.7138 62.0557 81.6362 65.6831 78.2542 67.6669L54.7659 81.4448C51.3134 83.47 47.0356 83.47 43.5831 81.4448L20.0949 67.6669C16.7129 65.6831 14.6353 62.0557 14.6353 58.1348V30.2735Z" fill="#BFBFBF"/>
<path d="M49.1748 47.6339C49.1748 43.4018 51.5918 39.5413 55.3989 37.6928L78.4214 26.5142C80.868 25.3263 83.7141 27.1082 83.7141 29.8279V58.1353C83.7141 62.0562 81.6365 65.6836 78.2544 67.6674L54.7223 81.471C52.2666 82.9115 49.1748 81.1407 49.1748 78.2937L49.1748 64.4649L49.1748 47.6339Z" fill="#B4B4B4"/>
<path d="M14.6353 29.8364C14.6353 27.1146 17.4854 25.3327 19.9323 26.5248L42.9636 37.7455C46.7635 39.5967 49.1745 43.4533 49.1745 47.6802V76.8739C49.1745 76.8739 49.2043 79.5353 49.8162 80.4312C50.3406 81.199 51.1837 81.7297 51.9463 81.8955C53.0478 82.135 54.1786 81.7685 54.1786 81.7685V81.7685C51.0902 83.5931 47.2553 83.5991 44.1612 81.7842L20.0949 67.6672C16.7129 65.6833 14.6353 62.056 14.6353 58.135V29.8364Z" fill="#808080"/>
<defs>
<filter id="filter0_d_341_2430" x="228.209" y="47.8034" width="97.869" height="70.1588" filterUnits="userSpaceOnUse" color-interpolation-filters="sRGB">
<feFlood flood-opacity="0" result="BackgroundImageFix"/>
<feColorMatrix in="SourceAlpha" type="matrix" values="0 0 0 0 0 0 0 0 0 0 0 0 0 0 0 0 0 0 127 0" result="hardAlpha"/>
<feOffset/>
<feGaussianBlur stdDeviation="8.84084"/>
<feColorMatrix type="matrix" values="0 0 0 0 0 0 0 0 0 0.34902 0 0 0 0 0.870588 0 0 0 0.4 0"/>
<feBlend mode="normal" in2="BackgroundImageFix" result="effect1_dropShadow_341_2430"/>
<feBlend mode="normal" in="SourceGraphic" in2="effect1_dropShadow_341_2430" result="shape"/>
</filter>
<filter id="filter1_d_341_2430" x="114.209" y="47.8034" width="97.869" height="70.1588" filterUnits="userSpaceOnUse" color-interpolation-filters="sRGB">
<feFlood flood-opacity="0" result="BackgroundImageFix"/>
<feColorMatrix in="SourceAlpha" type="matrix" values="0 0 0 0 0 0 0 0 0 0 0 0 0 0 0 0 0 0 127 0" result="hardAlpha"/>
<feOffset/>
<feGaussianBlur stdDeviation="8.84084"/>
<feColorMatrix type="matrix" values="0 0 0 0 0.358333 0 0 0 0 0.358333 0 0 0 0 0.358333 0 0 0 0.4 0"/>
<feBlend mode="normal" in2="BackgroundImageFix" result="effect1_dropShadow_341_2430"/>
<feBlend mode="normal" in="SourceGraphic" in2="effect1_dropShadow_341_2430" result="shape"/>
</filter>
<filter id="filter2_d_341_2430" x="0.208698" y="47.8034" width="97.869" height="70.1588" filterUnits="userSpaceOnUse" color-interpolation-filters="sRGB">
<feFlood flood-opacity="0" result="BackgroundImageFix"/>
<feColorMatrix in="SourceAlpha" type="matrix" values="0 0 0 0 0 0 0 0 0 0 0 0 0 0 0 0 0 0 127 0" result="hardAlpha"/>
<feOffset/>
<feGaussianBlur stdDeviation="8.84084"/>
<feColorMatrix type="matrix" values="0 0 0 0 0.358333 0 0 0 0 0.358333 0 0 0 0 0.358333 0 0 0 0.4 0"/>
<feBlend mode="normal" in2="BackgroundImageFix" result="effect1_dropShadow_341_2430"/>
<feBlend mode="normal" in="SourceGraphic" in2="effect1_dropShadow_341_2430" result="shape"/>
</filter>
</defs>
</svg>
