<svg width="327" height="118" viewBox="0 0 327 118" fill="none" xmlns="http://www.w3.org/2000/svg">
<g filter="url(#filter0_d_341_2427)">
<path d="M161.866 65.7405C162.506 65.4027 163.271 65.4001 163.914 65.7334L193.203 80.9209C194.793 81.7455 194.793 84.0204 193.203 84.8451L163.914 100.033C163.271 100.366 162.506 100.363 161.866 100.025L133.069 84.838C131.497 84.0088 131.497 81.7572 133.069 80.928L161.866 65.7405Z" fill="black" fill-opacity="0.01"/>
</g>
<path d="M125 28.4735C125 24.5301 127.101 20.8855 130.514 18.9097L157.638 3.20582C161.063 1.2228 165.287 1.2228 168.712 3.20582L195.836 18.9097C199.249 20.8855 201.35 24.5301 201.35 28.4735V59.9349C201.35 63.8783 199.249 67.5229 195.836 69.4987L168.712 85.2026C165.287 87.1856 161.063 87.1856 157.638 85.2026L130.514 69.4987C127.101 67.5229 125 63.8783 125 59.9349V28.4735Z" fill="#FFFEE6"/>
<path d="M128.635 30.2733C128.635 26.3524 130.713 22.725 134.095 20.7412L157.583 6.96332C161.036 4.93811 165.314 4.93811 168.766 6.96332L192.254 20.7412C195.636 22.725 197.714 26.3524 197.714 30.2733V58.1347C197.714 62.0556 195.636 65.683 192.254 67.6668L168.766 81.4447C165.314 83.4699 161.036 83.4699 157.583 81.4447L134.095 67.6668C130.713 65.683 128.635 62.0556 128.635 58.1347V30.2733Z" fill="#FDED72"/>
<path d="M163.175 47.634C163.175 43.4019 165.592 39.5414 169.399 37.6929L192.421 26.5143C194.868 25.3264 197.714 27.1083 197.714 29.828V58.1354C197.714 62.0563 195.636 65.6837 192.254 67.6675L168.722 81.4712C166.267 82.9116 163.175 81.1408 163.175 78.2938L163.175 64.465L163.175 47.634Z" fill="#FDDD48"/>
<path d="M128.635 29.8363C128.635 27.1144 131.486 25.3326 133.933 26.5247L156.964 37.7453C160.764 39.5966 163.175 43.4532 163.175 47.6801V76.8738C163.175 76.8738 163.205 79.5352 163.816 80.4311C164.341 81.1988 165.184 81.7296 165.947 81.8954C167.048 82.1349 168.179 81.7683 168.179 81.7683V81.7683C165.09 83.5929 161.256 83.599 158.161 81.784L134.095 67.6671C130.713 65.6832 128.635 62.0558 128.635 58.1349V29.8363Z" fill="#FFCC00"/>
<g filter="url(#filter1_d_341_2427)">
<path d="M47.8657 65.7405C48.5062 65.4027 49.2715 65.4001 49.9142 65.7334L79.2029 80.9209C80.7933 81.7455 80.7933 84.0204 79.2029 84.8451L49.9143 100.033C49.2715 100.366 48.5062 100.363 47.8657 100.025L19.0693 84.838C17.4971 84.0088 17.4971 81.7572 19.0693 80.928L47.8657 65.7405Z" fill="black" fill-opacity="0.01"/>
</g>
<path d="M11 28.4735C11 24.5301 13.1013 20.8855 16.5139 18.9097L43.6379 3.20582C47.063 1.2228 51.287 1.2228 54.7121 3.20582L81.836 18.9097C85.2487 20.8855 87.35 24.5301 87.35 28.4735V59.9349C87.35 63.8783 85.2487 67.5229 81.836 69.4987L54.7121 85.2026C51.287 87.1856 47.063 87.1856 43.6379 85.2026L16.5139 69.4987C13.1013 67.5229 11 63.8783 11 59.9349V28.4735Z" fill="#FFFEE6"/>
<path d="M14.6355 30.2733C14.6355 26.3524 16.7131 22.725 20.0951 20.7412L43.5833 6.96332C47.0359 4.93811 51.3136 4.93811 54.7662 6.96332L78.2544 20.7412C81.6364 22.725 83.714 26.3524 83.714 30.2733V58.1347C83.714 62.0556 81.6364 65.683 78.2544 67.6668L54.7662 81.4447C51.3136 83.4699 47.0359 83.4699 43.5833 81.4447L20.0951 67.6668C16.7131 65.683 14.6355 62.0556 14.6355 58.1347V30.2733Z" fill="#FFF8C4"/>
<path d="M49.1748 47.634C49.1748 43.4019 51.5918 39.5414 55.3989 37.6929L78.4214 26.5143C80.868 25.3264 83.7141 27.1083 83.7141 29.828V58.1354C83.7141 62.0563 81.6365 65.6837 78.2544 67.6675L54.7223 81.4712C52.2666 82.9116 49.1748 81.1408 49.1748 78.2938L49.1748 64.465L49.1748 47.634Z" fill="#FFEEA1"/>
<path d="M14.6355 29.8363C14.6355 27.1144 17.4857 25.3326 19.9326 26.5247L42.9638 37.7453C46.7637 39.5966 49.1748 43.4532 49.1748 47.6801V76.8738C49.1748 76.8738 49.2045 79.5352 49.8164 80.4311C50.3409 81.1988 51.1839 81.7296 51.9465 81.8954C53.048 82.1349 54.1788 81.7683 54.1788 81.7683V81.7683C51.0905 83.5929 47.2555 83.599 44.1615 81.784L20.0951 67.6671C16.7131 65.6832 14.6355 62.0558 14.6355 58.1349V29.8363Z" fill="#FFE57E"/>
<g filter="url(#filter2_d_341_2427)">
<path d="M275.866 65.7405C276.507 65.4027 277.272 65.4001 277.915 65.7334L307.203 80.9209C308.794 81.7455 308.794 84.0204 307.203 84.8451L277.915 100.033C277.272 100.366 276.507 100.363 275.866 100.025L247.07 84.838C245.498 84.0088 245.498 81.7572 247.07 80.928L275.866 65.7405Z" fill="black" fill-opacity="0.01"/>
</g>
<path d="M239 28.4735C239 24.5301 241.101 20.8855 244.514 18.9097L271.638 3.20582C275.063 1.2228 279.287 1.2228 282.712 3.20582L309.836 18.9097C313.249 20.8855 315.35 24.5301 315.35 28.4735V59.9349C315.35 63.8783 313.249 67.5229 309.836 69.4987L282.712 85.2026C279.287 87.1856 275.063 87.1856 271.638 85.2026L244.514 69.4987C241.101 67.5229 239 63.8783 239 59.9349V28.4735Z" fill="#FFF8E6"/>
<path d="M242.636 30.2733C242.636 26.3524 244.713 22.725 248.095 20.7412L271.584 6.96332C275.036 4.93811 279.314 4.93811 282.766 6.96332L306.255 20.7412C309.637 22.725 311.714 26.3524 311.714 30.2733V58.1347C311.714 62.0556 309.637 65.683 306.255 67.6668L282.766 81.4447C279.314 83.4699 275.036 83.4699 271.584 81.4447L248.095 67.6668C244.713 65.683 242.636 62.0556 242.636 58.1347V30.2733Z" fill="#FCCC75"/>
<path d="M277.175 47.634C277.175 43.4019 279.592 39.5414 283.399 37.6929L306.422 26.5143C308.868 25.3264 311.714 27.1083 311.714 29.828V58.1354C311.714 62.0563 309.637 65.6837 306.255 67.6675L282.723 81.4712C280.267 82.9116 277.175 81.1408 277.175 78.2938L277.175 64.465L277.175 47.634Z" fill="#FDAC42"/>
<path d="M242.636 29.8363C242.636 27.1144 245.486 25.3326 247.933 26.5247L270.964 37.7453C274.764 39.5966 277.175 43.4532 277.175 47.6801V76.8738C277.175 76.8738 277.205 79.5352 277.817 80.4311C278.341 81.1988 279.184 81.7296 279.947 81.8954C281.048 82.1349 282.179 81.7683 282.179 81.7683V81.7683C279.091 83.5929 275.256 83.599 272.162 81.784L248.095 67.6671C244.713 65.6832 242.636 62.0558 242.636 58.1349V29.8363Z" fill="#FF8800"/>
<defs>
<filter id="filter0_d_341_2427" x="114.208" y="47.8035" width="97.869" height="70.1588" filterUnits="userSpaceOnUse" color-interpolation-filters="sRGB">
<feFlood flood-opacity="0" result="BackgroundImageFix"/>
<feColorMatrix in="SourceAlpha" type="matrix" values="0 0 0 0 0 0 0 0 0 0 0 0 0 0 0 0 0 0 127 0" result="hardAlpha"/>
<feOffset/>
<feGaussianBlur stdDeviation="8.84084"/>
<feColorMatrix type="matrix" values="0 0 0 0 1 0 0 0 0 0.8 0 0 0 0 0 0 0 0 0.4 0"/>
<feBlend mode="normal" in2="BackgroundImageFix" result="effect1_dropShadow_341_2427"/>
<feBlend mode="normal" in="SourceGraphic" in2="effect1_dropShadow_341_2427" result="shape"/>
</filter>
<filter id="filter1_d_341_2427" x="0.208454" y="47.8035" width="97.869" height="70.1588" filterUnits="userSpaceOnUse" color-interpolation-filters="sRGB">
<feFlood flood-opacity="0" result="BackgroundImageFix"/>
<feColorMatrix in="SourceAlpha" type="matrix" values="0 0 0 0 0 0 0 0 0 0 0 0 0 0 0 0 0 0 127 0" result="hardAlpha"/>
<feOffset/>
<feGaussianBlur stdDeviation="8.84084"/>
<feColorMatrix type="matrix" values="0 0 0 0 1 0 0 0 0 0.8 0 0 0 0 0 0 0 0 0.4 0"/>
<feBlend mode="normal" in2="BackgroundImageFix" result="effect1_dropShadow_341_2427"/>
<feBlend mode="normal" in="SourceGraphic" in2="effect1_dropShadow_341_2427" result="shape"/>
</filter>
<filter id="filter2_d_341_2427" x="228.209" y="47.8035" width="97.869" height="70.1588" filterUnits="userSpaceOnUse" color-interpolation-filters="sRGB">
<feFlood flood-opacity="0" result="BackgroundImageFix"/>
<feColorMatrix in="SourceAlpha" type="matrix" values="0 0 0 0 0 0 0 0 0 0 0 0 0 0 0 0 0 0 127 0" result="hardAlpha"/>
<feOffset/>
<feGaussianBlur stdDeviation="8.84084"/>
<feColorMatrix type="matrix" values="0 0 0 0 1 0 0 0 0 0.533333 0 0 0 0 0 0 0 0 0.4 0"/>
<feBlend mode="normal" in2="BackgroundImageFix" result="effect1_dropShadow_341_2427"/>
<feBlend mode="normal" in="SourceGraphic" in2="effect1_dropShadow_341_2427" result="shape"/>
</filter>
</defs>
</svg>
