<svg width="24" height="25" viewBox="0 0 24 25" fill="none" xmlns="http://www.w3.org/2000/svg">
<path d="M3 18.7612V8.07373C3 6.73107 3.53337 5.44341 4.48277 4.494C5.43217 3.5446 6.71984 3.01123 8.0625 3.01123H15.9375C16.6023 3.01123 17.2606 3.14218 17.8748 3.39659C18.489 3.651 19.0471 4.02391 19.5172 4.494C19.9873 4.9641 20.3602 5.52218 20.6146 6.1364C20.8691 6.75061 21 7.40891 21 8.07373V15.9487C21 16.6135 20.8691 17.2719 20.6146 17.8861C20.3602 18.5003 19.9873 19.0584 19.5172 19.5285C19.0471 19.9986 18.489 20.3715 17.8748 20.6259C17.2606 20.8803 16.6023 21.0112 15.9375 21.0112H5.25C4.65326 21.0112 4.08097 20.7742 3.65901 20.3522C3.23705 19.9303 3 19.358 3 18.7612V18.7612Z" stroke="white" stroke-width="2" stroke-linecap="round" stroke-linejoin="round"/>
<path d="M7.98438 11.752H11.9219C12.5186 11.752 13.0909 11.989 13.5129 12.411C13.9348 12.8329 14.1719 13.4052 14.1719 14.002C14.1719 14.5987 13.9348 15.171 13.5129 15.5929C13.0909 16.0149 12.5186 16.252 11.9219 16.252H7.98438V8.37695C7.98437 8.07858 8.1029 7.79244 8.31388 7.58146C8.52486 7.37048 8.81101 7.25195 9.10937 7.25195H10.7969C11.3936 7.25195 11.9659 7.48901 12.3879 7.91096C12.8098 8.33292 13.0469 8.90522 13.0469 9.50195C13.0469 10.0987 12.8098 10.671 12.3879 11.0929C11.9659 11.5149 11.3936 11.752 10.7969 11.752H9.10937M16.9844 16.252H16.9956" stroke="white" stroke-width="2" stroke-linecap="round" stroke-linejoin="round"/>
</svg>
