<svg width="24" height="25" viewBox="0 0 24 25" fill="none" xmlns="http://www.w3.org/2000/svg">
<path fill-rule="evenodd" clip-rule="evenodd" d="M11.966 3.51123C9.9384 3.51123 8.29492 5.15398 8.29492 7.18096C8.29492 9.20795 9.9384 10.8507 11.966 10.8507C13.9921 10.8507 15.6357 9.20809 15.6357 7.18096C15.6357 5.15383 13.9921 3.51123 11.966 3.51123ZM6.79492 7.18096C6.79492 4.32497 9.11055 2.01123 11.966 2.01123C14.8202 2.01123 17.1357 4.32512 17.1357 7.18096C17.1357 10.0368 14.8202 12.3507 11.966 12.3507C9.11055 12.3507 6.79492 10.037 6.79492 7.18096Z" fill="white"/>
<path fill-rule="evenodd" clip-rule="evenodd" d="M5.87869 19.1962C7.66266 20.1335 9.73916 20.5169 11.9979 20.5114H12.0015C14.2602 20.5169 16.3367 20.1335 18.1206 19.1962C17.0962 16.7504 14.8093 15.5729 12.0016 15.5801H11.9978C9.1866 15.5729 6.90342 16.7476 5.87869 19.1962ZM11.9997 14.0801C8.50025 14.0718 5.38329 15.6994 4.24171 19.3093L4.06445 19.8698L4.56642 20.1758C6.77078 21.5197 9.33343 22.0176 11.9997 22.0114C14.666 22.0176 17.2286 21.5197 19.433 20.1758L19.9349 19.8699L19.7577 19.3093C18.6173 15.7029 15.4957 14.0718 11.9997 14.0801Z" fill="white"/>
</svg>
