<svg width="46" height="44" viewBox="0 0 46 44" fill="none" xmlns="http://www.w3.org/2000/svg">
<ellipse cx="23" cy="22" rx="23" ry="22" fill="#6E47A8"/>
<path d="M31.4444 32L24.4444 25C23.8889 25.4444 23.25 25.7963 22.5278 26.0556C21.8056 26.3148 21.037 26.4444 20.2222 26.4444C18.2037 26.4444 16.4956 25.7456 15.0978 24.3478C13.6993 22.9493 13 21.2407 13 19.2222C13 17.2037 13.6993 15.4952 15.0978 14.0967C16.4956 12.6989 18.2037 12 20.2222 12C22.2407 12 23.9493 12.6989 25.3478 14.0967C26.7456 15.4952 27.4444 17.2037 27.4444 19.2222C27.4444 20.037 27.3148 20.8056 27.0556 21.5278C26.7963 22.25 26.4444 22.8889 26 23.4444L33 30.4444L31.4444 32ZM20.2222 24.2222C21.6111 24.2222 22.7919 23.7363 23.7644 22.7644C24.7363 21.7919 25.2222 20.6111 25.2222 19.2222C25.2222 17.8333 24.7363 16.6526 23.7644 15.68C22.7919 14.7081 21.6111 14.2222 20.2222 14.2222C18.8333 14.2222 17.6526 14.7081 16.68 15.68C15.7081 16.6526 15.2222 17.8333 15.2222 19.2222C15.2222 20.6111 15.7081 21.7919 16.68 22.7644C17.6526 23.7363 18.8333 24.2222 20.2222 24.2222Z" fill="white"/>
</svg>
