<svg width="110" height="111" viewBox="0 0 110 111" fill="none" xmlns="http://www.w3.org/2000/svg">
<path fill-rule="evenodd" clip-rule="evenodd" d="M54.812 110.197C76.8029 110.197 95.7671 97.2383 104.485 78.5403C107.677 74.5833 109.588 69.5496 109.588 64.0695C109.588 51.3317 99.2622 41.0057 86.5244 41.0057C73.7867 41.0057 63.4606 51.3317 63.4606 64.0695C63.4606 76.8073 73.7867 87.1334 86.5244 87.1334C88.7462 87.1334 90.8947 86.8192 92.9277 86.2328C83.9426 97.3339 70.2061 104.431 54.812 104.431C43.2423 104.431 32.609 100.422 24.2254 93.7179C23.0127 92.3469 21.5017 90.7565 20.8451 90.5137C20.2926 90.3095 19.7149 90.1972 19.2086 90.1972C17.6164 90.1972 16.3256 91.488 16.3256 93.0802C16.3256 94.0107 16.7665 94.8383 17.4508 95.3654L17.3548 95.3888C27.1507 104.573 40.3245 110.197 54.812 110.197ZM99.6084 75.3848C102.234 72.3516 103.822 68.3961 103.822 64.0695C103.822 54.5162 96.0778 46.7717 86.5244 46.7717C76.9711 46.7717 69.2266 54.5162 69.2266 64.0695C69.2266 73.6229 76.9711 81.3674 86.5244 81.3674C91.7254 81.3674 96.3902 79.072 99.5612 75.4391L99.5827 75.3911L99.6084 75.3848Z" fill="#6427A0"/>
<path fill-rule="evenodd" clip-rule="evenodd" d="M54.812 0.644043C76.2908 0.644043 94.8823 13.0064 103.859 31.0041C103.94 31.3567 103.859 30.4751 103.859 31.0041C103.859 32.5963 104.178 35.2398 100.939 35.2398C99.3471 35.2398 98.0564 32.3568 98.0564 32.3568V32.3568C98.0564 32.3431 98.053 32.3296 98.0466 32.3175C89.7899 16.8984 73.5258 6.41 54.812 6.41C35.9602 6.41 19.5945 17.0535 11.3961 32.6592C14.8269 30.6351 18.8273 29.4738 23.099 29.4738C35.8368 29.4738 46.1628 39.7998 46.1628 52.5376C46.1628 65.2754 35.8368 75.6014 23.099 75.6014C11.602 75.6014 2.06988 67.1892 0.321816 56.1842L0.0416091 56.2524C0.0374894 55.9756 0.0354223 55.6983 0.0354223 55.4206C0.0354223 54.8366 0.0445632 54.2546 0.0627098 53.675C0.0444116 53.2982 0.0351562 52.919 0.0351562 52.5376C0.0351562 50.7328 0.242464 48.9764 0.634567 47.2909C4.56196 20.8941 27.3221 0.644043 54.812 0.644043ZM5.83405 53.614C6.38979 62.666 13.9071 69.8355 23.099 69.8355C32.6524 69.8355 40.3968 62.091 40.3968 52.5376C40.3968 42.9842 32.6524 35.2398 23.099 35.2398C14.9764 35.2398 8.16148 40.8382 6.30233 48.3868C6.05581 50.1021 5.89811 51.8461 5.83405 53.614Z" fill="#6427A0"/>
</svg>
