<svg width="182" height="181" viewBox="0 0 182 181" fill="none" xmlns="http://www.w3.org/2000/svg">
<path d="M27.4743 28.0789C28.6017 26.3333 30.9298 25.8312 32.6762 26.9563C32.6771 26.9569 32.6799 26.9587 30.6372 30.1216L28.5945 33.2844C26.8477 32.1563 26.3462 29.8257 27.4743 28.0789Z" fill="#6427A0"/>
<path fill-rule="evenodd" clip-rule="evenodd" d="M64.5235 134.329V46.3992C57.2095 44.9615 50.8662 43.0794 45.6356 41.1939C40.2474 39.2517 36.0328 37.3034 33.1446 35.8276C31.7001 35.0894 30.5861 34.4689 29.8217 34.0254C29.4395 33.8036 29.1446 33.626 28.9393 33.5001L28.6988 33.3508L28.6295 33.3069L28.6077 33.2929L28.5945 33.2844C28.5932 33.2836 28.5945 33.2844 30.6372 30.1216L32.6762 26.9563L32.7116 26.9787L32.8769 27.0813C33.0312 27.176 33.2733 27.322 33.6009 27.512C34.256 27.8922 35.2524 28.4482 36.571 29.122C39.209 30.47 43.132 32.2869 48.1891 34.1098C58.3056 37.7564 72.9317 41.417 90.8796 41.417C108.827 41.417 123.454 37.7564 133.57 34.1098C138.627 32.2869 142.55 30.47 145.188 29.122C146.507 28.4482 147.503 27.8922 148.158 27.512C148.486 27.322 148.728 27.176 148.882 27.0813L149.048 26.9787L149.079 26.9587C150.826 25.8322 153.157 26.3327 154.285 28.0789C155.413 29.8257 154.912 32.1563 153.165 33.2844L151.122 30.1216C153.165 33.2844 153.166 33.2836 153.165 33.2844L153.152 33.2929L153.13 33.3069L153.06 33.3508L152.82 33.5001C152.615 33.626 152.32 33.8036 151.937 34.0254C151.173 34.4689 150.059 35.0894 148.615 35.8276C145.726 37.3034 141.512 39.2517 136.124 41.1939C130.893 43.0794 124.55 44.9615 117.236 46.3992V134.329C124.55 135.766 130.893 137.649 136.124 139.534C141.512 141.476 145.726 143.425 148.615 144.9C150.059 145.639 151.173 146.259 151.937 146.703C152.32 146.924 152.615 147.102 152.82 147.228L153.06 147.377L153.13 147.421L153.152 147.435L153.159 147.44C153.16 147.441 153.165 147.444 151.122 150.606L153.159 147.44C154.906 148.568 155.413 150.902 154.285 152.649C153.157 154.395 150.828 154.897 149.081 153.771L149.048 153.749L148.882 153.647C148.728 153.552 148.486 153.406 148.158 153.216C147.503 152.836 146.507 152.28 145.188 151.606C142.55 150.258 138.627 148.441 133.57 146.618C123.454 142.972 108.827 139.311 90.8796 139.311C72.9317 139.311 58.3056 142.972 48.1891 146.618C43.132 148.441 39.209 150.258 36.571 151.606C35.2524 152.28 34.256 152.836 33.6009 153.216C33.2733 153.406 33.0312 153.552 32.8769 153.647L32.7116 153.749L32.6799 153.769L30.6372 150.606C28.5945 147.444 28.5957 147.443 28.597 147.442L28.6077 147.435L28.6295 147.421L28.6988 147.377L28.9393 147.228C29.1446 147.102 29.4395 146.924 29.8217 146.703C30.5861 146.259 31.7001 145.639 33.1446 144.9C36.0328 143.425 40.2474 141.476 45.6356 139.534C50.8662 137.649 57.2095 135.766 64.5235 134.329ZM72.0539 133.07C77.8542 132.268 84.1479 131.781 90.8796 131.781C97.6113 131.781 103.905 132.268 109.705 133.07V47.6583C103.905 48.4603 97.6113 48.9473 90.8796 48.9473C84.1479 48.9473 77.8542 48.4603 72.0539 47.6583V133.07Z" fill="#6427A0"/>
<path d="M32.6799 153.769C32.6792 153.77 32.6805 153.769 32.6799 153.769V153.769Z" fill="#6427A0"/>
<path d="M32.6799 153.769C30.9333 154.896 28.602 154.395 27.4743 152.649C26.3462 150.902 26.8502 148.57 28.597 147.442L30.6372 150.606C32.6799 153.769 32.6808 153.769 32.6799 153.769Z" fill="#6427A0"/>
</svg>
