<svg width="182" height="182" viewBox="0 0 182 182" fill="none" xmlns="http://www.w3.org/2000/svg">
<path fill-rule="evenodd" clip-rule="evenodd" d="M20.9965 27.9387C22.6202 26.6397 24.9896 26.903 26.2886 28.5267L38.4775 43.7629L48.6195 31.6671C53.1428 26.2724 61.4454 26.2849 65.9524 31.6933L76.0607 43.8232L86.209 31.6452C90.7249 26.2261 99.048 26.2262 103.564 31.6452L114.859 45.1997C116.551 47.2297 117.477 49.7885 117.477 52.4309V59.5166C119.997 57.1014 122.181 55.1649 124.231 53.7004C128.113 50.9273 131.693 49.7046 136.303 49.7046C139.281 49.7046 142.66 51.1099 145.665 53.4319C148.758 55.8218 151.732 59.3834 153.863 64.1773C158.152 73.8286 158.886 88.1013 151.094 107.58C145.408 121.795 136.354 131.278 126.86 137.428C130.835 140.549 136.419 142.986 144.249 143.856C146.316 144.086 147.805 145.948 147.575 148.014C147.346 150.081 145.484 151.57 143.418 151.341C132.778 150.158 125.16 146.368 119.891 141.346C110.282 145.992 100.948 147.599 94.8864 147.599C92.807 147.599 91.1213 145.913 91.1213 143.833C91.1213 141.754 92.807 140.068 94.8864 140.068C99.7219 140.068 107.146 138.836 114.974 135.336C114.966 135.322 114.957 135.308 114.948 135.294C110.171 127.693 109.286 119.198 109.947 113.487V52.4309C109.947 51.5501 109.638 50.6972 109.074 50.0205L97.7789 36.466C96.2736 34.6596 93.4992 34.6596 91.9939 36.466L79.8258 51.0677V128.773C79.8258 130.852 78.1401 132.538 76.0607 132.538C73.9812 132.538 72.2955 130.852 72.2955 128.773V51.0677L60.1675 36.5141C58.6651 34.7113 55.8976 34.7071 54.3898 36.5054L42.1743 51.0742V128.773C42.1743 130.852 40.4886 132.538 38.4091 132.538C36.3297 132.538 34.644 130.852 34.644 128.773V51.0253L20.4085 33.2309C19.1094 31.6071 19.3727 29.2377 20.9965 27.9387ZM117.477 113.76C117.478 113.725 117.478 113.69 117.477 113.655L117.477 70.0904C122.583 64.9901 125.825 61.8157 128.608 59.8281C131.315 57.8947 133.383 57.2349 136.303 57.2349C137.09 57.2349 138.888 57.7121 141.061 59.3906C143.145 61.0012 145.347 63.558 146.982 67.2356C150.223 74.5275 151.372 86.6109 144.103 104.784C138.866 117.875 130.393 126.412 121.657 131.803C121.543 131.631 121.432 131.46 121.324 131.288C118.425 126.674 117.369 121.561 117.288 117.477H117.477V113.76Z" fill="#6427A0"/>
</svg>
