<svg width="181" height="181" viewBox="0 0 181 181" fill="none" xmlns="http://www.w3.org/2000/svg">
<path d="M103.44 35.4872C111.904 25.5178 120.31 21.3111 126.979 19.7064C130.285 18.9109 133.089 18.7729 135.162 18.8409C136.198 18.8748 137.043 18.9599 137.659 19.0359C137.902 19.0659 138.118 19.0956 138.269 19.1164L138.362 19.1291L138.394 19.1334C143.361 19.1906 149.077 21.466 153.555 25.1578C158.147 28.9439 161.902 34.6207 161.902 41.6807C161.902 47.72 160.839 53.2451 157.786 57.8492C154.696 62.5077 149.884 65.7502 143.318 67.8126C141.334 68.4357 139.221 67.3326 138.598 65.3488C137.975 63.3649 139.078 61.2515 141.062 60.6283C146.455 58.9341 149.617 56.5416 151.51 53.6869C153.44 50.7777 154.371 46.9112 154.371 41.6807C154.371 37.4708 152.146 33.756 148.765 30.9679C145.326 28.1331 141.166 26.6626 138.203 26.6626C137.849 26.6626 137.454 26.606 137.363 26.5929L137.347 26.5907L137.223 26.5737C137.075 26.5533 136.923 26.5325 136.738 26.5097C136.282 26.4535 135.67 26.3919 134.915 26.3671C133.406 26.3177 131.289 26.4145 128.741 27.0277C123.701 28.2405 116.663 31.547 109.18 40.3608C103.994 46.4695 100.202 54.7102 97.7085 62.795C95.2149 70.88 94.1288 78.4515 94.1288 83.0036V158.136C94.1288 160.216 92.4431 161.901 90.3637 161.901C88.2842 161.901 86.5985 160.216 86.5985 158.136V82.8332C86.5985 78.2431 85.568 70.6331 83.2094 62.5174C80.8491 54.3958 77.2611 46.1261 72.363 40.0035C65.2995 31.1742 58.6899 27.9023 54.019 26.7096C51.6533 26.1054 49.6934 26.0111 48.3016 26.0595C47.605 26.0838 47.0403 26.1441 46.6191 26.1992C46.4472 26.2217 46.3075 26.242 46.1677 26.2624L46.0491 26.2796L46.0389 26.2812C45.9653 26.2926 45.5548 26.356 45.1819 26.356C42.5095 26.356 38.6527 27.7767 35.4245 30.6015C32.2674 33.3639 30.1212 37.1045 30.1212 41.4166C30.1212 46.6919 31.0084 50.6043 32.8434 53.5404C34.6306 56.3998 37.5865 58.762 42.6073 60.4356C44.5801 61.0931 45.6462 63.2254 44.9886 65.1981C44.3311 67.1709 42.1988 68.237 40.2261 67.5794C33.9514 65.4879 29.3771 62.2023 26.4578 57.5314C23.5863 52.9372 22.5909 47.4367 22.5909 41.4166C22.5909 34.4333 26.0925 28.7609 30.4657 24.9343C34.7052 21.2248 40.1625 18.8942 44.9693 18.8272L55.8822 19.4134C62.2696 21.0445 70.246 25.3029 78.2432 35.2993C83.9893 42.482 87.9316 51.783 90.4405 60.4159C90.4602 60.4836 90.4798 60.5513 90.4993 60.6189C90.5037 60.6045 90.5082 60.5901 90.5126 60.5757C93.1748 51.944 97.3557 42.6537 103.44 35.4872Z" fill="#6427A0"/>
</svg>
