<svg width="182" height="182" viewBox="0 0 182 182" fill="none" xmlns="http://www.w3.org/2000/svg">
<path d="M87.8676 67.2864C89.3736 65.2783 92.3857 65.2783 93.8918 67.2864L104.434 81.3429C108.952 87.3672 117.989 87.3672 122.507 81.3429L132.484 68.0398C134.071 65.924 137.288 66.0607 138.689 68.3034L151.694 89.1117C152.797 90.875 155.119 91.4111 156.883 90.309C158.646 89.2069 159.182 86.884 158.08 85.1206L145.075 64.3123C140.87 57.5841 131.221 57.1743 126.46 63.5217L116.483 76.8247C114.977 78.8328 111.965 78.8328 110.458 76.8247L99.916 62.7682C95.3979 56.7439 86.3615 56.7439 81.8433 62.7682L71.3009 76.8247C69.7948 78.8328 66.7827 78.8328 65.2766 76.8247L55.2993 63.5217C50.5388 57.1743 40.8896 57.5841 36.6844 64.3123L23.6793 85.1206C22.5772 86.884 23.1132 89.2069 24.8766 90.309C26.6399 91.4111 28.9628 90.875 30.0649 89.1117L43.0701 68.3034C44.4718 66.0607 47.6882 65.924 49.2751 68.0398L59.2524 81.3429C63.7706 87.3672 72.807 87.3672 77.3251 81.3429L87.8676 67.2864Z" fill="#6427A0"/>
<path d="M87.8676 108.703C89.3736 106.695 92.3857 106.695 93.8918 108.703L104.434 122.76C108.952 128.784 117.989 128.784 122.507 122.76L132.484 109.457C134.071 107.341 137.288 107.477 138.689 109.72L151.694 130.528C152.797 132.292 155.119 132.828 156.883 131.726C158.646 130.624 159.182 128.301 158.08 126.537L145.075 105.729C140.87 99.0008 131.221 98.5909 126.46 104.938L116.483 118.241C114.977 120.249 111.965 120.249 110.458 118.241L99.916 104.185C95.3979 98.1606 86.3615 98.1606 81.8433 104.185L71.3009 118.241C69.7948 120.249 66.7827 120.249 65.2766 118.241L55.2993 104.938C50.5388 98.5909 40.8896 99.0008 36.6844 105.729L23.6793 126.537C22.5772 128.301 23.1132 130.624 24.8766 131.726C26.6399 132.828 28.9628 132.292 30.0649 130.528L43.0701 109.72C44.4718 107.477 47.6882 107.341 49.2751 109.457L59.2524 122.76C63.7706 128.784 72.807 128.784 77.3251 122.76L87.8676 108.703Z" fill="#6427A0"/>
</svg>
