<svg width="181" height="182" viewBox="0 0 181 182" fill="none" xmlns="http://www.w3.org/2000/svg">
<path d="M146.555 29.195C146.372 28.7509 146.099 28.3349 145.738 27.9739L143.076 26.8711H82.8334C80.7539 26.8711 79.0682 28.5568 79.0682 30.6362C79.0682 32.7157 80.7539 34.4014 82.8334 34.4014H133.986L64.0076 104.38L40.3139 80.686C38.8435 79.2156 36.4596 79.2156 34.9892 80.686C33.5188 82.1564 33.5188 84.5403 34.9892 86.0107L58.6829 109.704L19.9286 148.459C18.4582 149.929 18.4582 152.313 19.9286 153.783C21.399 155.254 23.7829 155.254 25.2533 153.783L64.0076 115.029L87.7013 138.723C89.1717 140.193 91.5557 140.193 93.026 138.723C94.4964 137.252 94.4964 134.868 93.026 133.398L69.3324 109.704L139.311 39.7261V87.1135C139.311 89.193 140.996 90.8787 143.076 90.8787C145.155 90.8787 146.841 89.193 146.841 87.1135V30.6362C146.841 30.1257 146.739 29.6389 146.555 29.195Z" fill="#6427A0"/>
</svg>
