<svg width="182" height="181" viewBox="0 0 182 181" fill="none" xmlns="http://www.w3.org/2000/svg">
<path fill-rule="evenodd" clip-rule="evenodd" d="M19.5833 30.1211C19.5833 28.0417 21.269 26.356 23.3484 26.356H26.2327C37.4071 26.356 48.2487 30.159 56.9744 37.1396C61.5418 40.7935 65.4212 45.2324 68.4305 50.248L71.6963 55.6909C74.3818 60.1667 76.5693 64.9229 78.2199 69.8746L79.3408 73.2372C83.0746 72.1314 87.0286 71.5378 91.1211 71.5378C95.2137 71.5378 99.1676 72.1314 102.901 73.2372L104.022 69.8746C105.673 64.9229 107.86 60.1667 110.546 55.6909L113.812 50.248C116.821 45.2324 120.7 40.7935 125.268 37.1396C133.994 30.159 144.835 26.356 156.01 26.356H158.894C160.973 26.356 162.659 28.0417 162.659 30.1211C162.659 32.2005 160.973 33.8863 158.894 33.8863H156.01C146.545 33.8863 137.362 37.1074 129.972 43.0197C126.104 46.1145 122.818 49.8742 120.269 54.1223L117.003 59.5653C114.6 63.5699 112.643 67.8254 111.166 72.2559L109.907 76.0334C123.339 82.8814 132.538 96.8437 132.538 112.954C132.538 135.828 113.995 154.371 91.1211 154.371C68.2473 154.371 49.7045 135.828 49.7045 112.954C49.7045 96.8437 58.9033 82.8814 72.3352 76.0334L71.076 72.2559C69.5992 67.8254 67.6419 63.5699 65.2392 59.5653L61.9734 54.1223C59.4245 49.8742 56.1387 46.1145 52.2703 43.0197C44.8798 37.1074 35.6972 33.8863 26.2327 33.8863H23.3484C21.269 33.8863 19.5833 32.2005 19.5833 30.1211ZM91.1211 146.841C109.836 146.841 125.007 131.669 125.007 112.954C125.007 94.2395 109.836 79.0681 91.1211 79.0681C72.4062 79.0681 57.2348 94.2395 57.2348 112.954C57.2348 131.669 72.4062 146.841 91.1211 146.841Z" fill="#6427A0"/>
</svg>
