<svg width="181" height="182" viewBox="0 0 181 182" fill="none" xmlns="http://www.w3.org/2000/svg">
<path d="M40.865 28.5267C39.566 26.903 37.1967 26.6397 35.5729 27.9387C33.9491 29.2377 33.6859 31.6071 34.9849 33.2309L49.2204 51.0253V128.773H56.7507V51.0742L68.9663 36.5054C70.474 34.7071 73.2416 34.7113 74.7439 36.5141L86.8719 51.0677V128.773H94.4022V51.0677L106.57 36.466C108.076 34.6596 110.85 34.6596 112.355 36.466L123.651 50.0205C124.215 50.6972 124.523 51.5501 124.523 52.4309V109.934L124.523 109.947V127.633C124.523 131.574 125.69 135.428 127.877 138.708C131.58 144.262 137.814 147.598 144.489 147.598H150.879V157.076C150.879 157.747 151.691 158.083 152.165 157.608L165.408 144.366C165.702 144.072 165.702 143.595 165.408 143.301L152.165 130.058C151.691 129.584 150.879 129.92 150.879 130.591V140.068H144.489C140.331 140.068 136.449 137.99 134.142 134.531C132.78 132.488 132.054 130.088 132.054 127.633L132.054 52.4309C132.054 49.7885 131.127 47.2297 129.436 45.1997L118.14 31.6452C113.624 26.2262 105.301 26.2261 100.785 31.6452L90.6371 43.8232L80.5288 31.6933C76.0219 26.2849 67.7192 26.2724 63.1959 31.6671L53.054 43.7629L40.865 28.5267Z" fill="#6427A0"/>
</svg>
