<svg width="27" height="24" viewBox="0 0 27 24" fill="none" xmlns="http://www.w3.org/2000/svg">
<g clip-path="url(#clip0_158_4155)">
<path d="M26.0801 9.64963H25.0426V9.59983H13.4509V14.3998H20.7299C19.668 17.1939 16.8145 19.1997 13.4509 19.1997C9.18327 19.1997 5.72315 15.9759 5.72315 11.9998C5.72315 8.02366 9.18327 4.79992 13.4509 4.79992C15.4209 4.79992 17.2131 5.4923 18.5777 6.62329L22.2207 3.22914C19.9204 1.23178 16.8434 0 13.4509 0C6.33815 0 0.571289 5.37291 0.571289 11.9998C0.571289 18.6267 6.33815 23.9996 13.4509 23.9996C20.5637 23.9996 26.3306 18.6267 26.3306 11.9998C26.3306 11.1952 26.2417 10.4098 26.0801 9.64963Z" fill="#FFC107"/>
<path d="M2.05566 6.41449L6.28727 9.30584C7.43227 6.66468 10.2053 4.79992 13.4503 4.79992C15.4202 4.79992 17.2124 5.4923 18.577 6.62328L22.22 3.22914C19.9197 1.23178 16.8428 0 13.4503 0C8.50322 0 4.21301 2.60215 2.05566 6.41449Z" fill="#FF3D00"/>
<path d="M13.4515 24.0001C16.7783 24.0001 19.8011 22.8139 22.0866 20.8849L18.1004 17.7422C16.7638 18.6892 15.1306 19.2014 13.4515 19.2001C10.1015 19.2001 7.25699 17.21 6.18541 14.4326L1.98535 17.4476C4.11693 21.3337 8.44579 24.0001 13.4515 24.0001Z" fill="#4CAF50"/>
<path d="M26.0803 9.64965H25.0429V9.59985H13.4512V14.3998H20.7301C20.2221 15.7296 19.3071 16.8916 18.0982 17.7423L18.1001 17.7411L22.0863 20.8839C21.8043 21.1227 26.3308 17.9997 26.3308 11.9998C26.3308 11.1952 26.242 10.4098 26.0803 9.64965Z" fill="#1976D2"/>
</g>
<defs>
<clipPath id="clip0_158_4155">
<rect x="0.571289" width="25.7598" height="24" rx="12" fill="white"/>
</clipPath>
</defs>
</svg>
