<svg width="181" height="182" viewBox="0 0 181 182" fill="none" xmlns="http://www.w3.org/2000/svg">
<path d="M51.3016 19.7391C53.1615 18.8092 55.4231 19.5631 56.3531 21.423L64.2244 37.1656C70.9189 50.5547 74.7054 64.9955 75.5634 79.5841H105.71C106.568 64.9955 110.355 50.5547 117.049 37.1656L124.921 21.423C125.851 19.5631 128.112 18.8092 129.972 19.7391C131.832 20.6691 132.586 22.9307 131.656 24.7906L123.785 40.5333C117.62 52.8637 114.103 66.1521 113.255 79.5841H135.819C137.898 79.5841 139.584 81.2698 139.584 83.3492C139.584 85.4287 137.898 87.1144 135.819 87.1144H113.058C113.209 100.799 116.121 114.474 121.814 127.284L131.729 149.593C132.574 151.493 131.718 153.718 129.818 154.563C127.917 155.407 125.692 154.551 124.848 152.651L114.933 130.343C108.806 116.558 105.678 101.84 105.528 87.1144H75.7461C75.5956 101.84 72.4676 116.558 66.3409 130.343L56.426 152.651C55.5815 154.551 53.3564 155.407 51.4562 154.563C49.556 153.718 48.7002 151.493 49.5448 149.593L59.4597 127.284C65.1531 114.474 68.0652 100.799 68.2154 87.1144H45.4551C43.3757 87.1144 41.6899 85.4287 41.6899 83.3492C41.6899 81.2698 43.3757 79.5841 45.4551 79.5841H68.0191C67.1705 66.1521 63.6543 52.8637 57.4891 40.5333L49.6177 24.7906C48.6878 22.9307 49.4417 20.6691 51.3016 19.7391Z" fill="#6427A0"/>
</svg>
