<svg width="181" height="181" viewBox="0 0 181 181" fill="none" xmlns="http://www.w3.org/2000/svg">
<path fill-rule="evenodd" clip-rule="evenodd" d="M94.4022 158.136C123.122 158.136 147.889 141.212 159.275 116.793C163.444 111.625 165.94 105.051 165.94 97.8939C165.94 81.2584 152.454 67.7727 135.819 67.7727C119.183 67.7727 105.697 81.2584 105.697 97.8939C105.697 114.529 119.183 128.015 135.819 128.015C138.72 128.015 141.526 127.605 144.181 126.839C132.447 141.337 114.507 150.606 94.4022 150.606C79.2923 150.606 65.4053 145.37 54.4563 136.614C52.8726 134.824 50.8992 132.747 50.0417 132.43C49.3201 132.163 48.5657 132.016 47.9044 132.016C45.825 132.016 44.1393 133.702 44.1393 135.782C44.1393 136.997 44.715 138.078 45.6087 138.766L45.4834 138.797C58.2768 150.791 75.4817 158.136 94.4022 158.136ZM152.906 112.672C156.335 108.71 158.409 103.544 158.409 97.8939C158.409 85.4173 148.295 75.303 135.819 75.303C123.342 75.303 113.228 85.4173 113.228 97.8939C113.228 110.37 123.342 120.485 135.819 120.485C142.611 120.485 148.703 117.487 152.844 112.743L152.873 112.68L152.906 112.672Z" fill="#6427A0"/>
<path fill-rule="evenodd" clip-rule="evenodd" d="M94.4022 15.0605C122.453 15.0605 146.734 31.2058 158.458 54.7105C158.458 54.0197 158.563 55.1711 158.458 54.7105C158.458 56.79 158.874 60.2424 154.644 60.2424C152.565 60.2424 150.879 56.4772 150.879 56.4772C150.879 56.4593 150.875 56.4416 150.866 56.4259C140.083 36.2886 118.842 22.5908 94.4022 22.5908C69.782 22.5908 48.4084 36.4913 37.7014 56.8722C42.1819 54.2287 47.4064 52.7121 52.9852 52.7121C69.6207 52.7121 83.1064 66.1978 83.1064 82.8333C83.1064 99.4687 69.6207 112.954 52.9852 112.954C37.9703 112.954 25.5213 101.968 23.2384 87.5957L22.8724 87.6847C22.8671 87.3233 22.8644 86.9612 22.8644 86.5984C22.8644 85.8357 22.8763 85.0757 22.9 84.3186C22.8761 83.8265 22.864 83.3313 22.864 82.8333C22.864 80.4762 23.1348 78.1823 23.6468 75.9811C28.776 41.507 58.5007 15.0605 94.4022 15.0605ZM30.4373 84.239C31.1631 96.0609 40.9807 105.424 52.9852 105.424C65.4619 105.424 75.5761 95.3099 75.5761 82.8333C75.5761 70.3566 65.4619 60.2424 52.9852 60.2424C42.3772 60.2424 33.477 67.5538 31.0489 77.4124C30.727 79.6525 30.521 81.9302 30.4373 84.239Z" fill="#6427A0"/>
</svg>
