<svg width="181" height="182" viewBox="0 0 181 182" fill="none" xmlns="http://www.w3.org/2000/svg">
<path fill-rule="evenodd" clip-rule="evenodd" d="M87.1047 23.3484C78.5497 23.3484 70.345 26.7469 64.2957 32.7962C59.3605 37.7314 56.1591 44.1342 55.172 51.0435L54.1436 58.2422C53.1544 65.1669 53.5181 72.2176 55.2147 79.0037L58.7109 92.9889C55.6913 91.7838 52.3966 91.1211 48.947 91.1211C34.391 91.1211 22.5909 102.921 22.5909 117.477C22.5909 132.033 34.391 143.833 48.947 143.833C63.5031 143.833 75.3031 132.033 75.3031 117.477C75.3031 110.263 72.4044 103.725 67.7081 98.9661C67.6232 97.9369 67.4546 96.9154 67.2038 95.9119L62.5201 77.1773C61.0599 71.3363 60.7468 65.2675 61.5983 59.3072L62.6267 52.1084C63.3833 46.8121 65.8373 41.904 69.6204 38.1209C74.2575 33.4838 80.5468 30.8787 87.1047 30.8787H92.3466C95.5322 30.8787 98.6885 31.4866 101.646 32.6697L102.686 33.0854C109.498 35.8105 114.588 41.6414 116.368 48.7599C118.956 59.1146 118.539 69.9928 115.163 80.1185L109.337 97.5979L103.137 122.396C102.103 126.534 102 130.851 102.837 135.033L103.21 136.9C104.886 145.282 110.683 152.251 118.62 155.426C124.651 157.838 131.379 157.838 137.41 155.426L138.131 155.137C145.57 152.162 151.322 146.062 153.856 138.461L154.178 137.494C154.836 135.521 153.769 133.389 151.797 132.731C149.824 132.073 147.692 133.14 147.034 135.112L146.712 136.08C144.879 141.579 140.717 145.993 135.335 148.146L134.613 148.434C130.378 150.128 125.653 150.128 121.417 148.434C115.843 146.204 111.772 141.31 110.594 135.423L110.221 133.557C109.603 130.467 109.679 127.279 110.443 124.222L116.572 99.7049L122.307 82.4998C126.135 71.0155 126.609 58.6776 123.673 46.9335C121.307 37.4692 114.54 29.7168 105.482 26.0937L104.443 25.6779C100.596 24.139 96.4902 23.3484 92.3466 23.3484H87.1047ZM68.714 117.477C68.714 128.394 59.864 137.244 48.947 137.244C38.03 137.244 29.18 128.394 29.18 117.477C29.18 106.56 38.03 97.7101 48.947 97.7101C59.864 97.7101 68.714 106.56 68.714 117.477Z" fill="#6427A0"/>
</svg>
