<svg width="97" height="136" viewBox="0 0 97 136" fill="none" xmlns="http://www.w3.org/2000/svg">
<path d="M92.15 -2.12e-07C93.4363 -1.55774e-07 94.6699 0.477616 95.5795 1.32778C96.489 2.17794 97 3.331 97 4.53331L97 131.466C97.0001 132.221 96.7983 132.965 96.4129 133.629C96.0276 134.292 95.4709 134.856 94.7934 135.267C94.1159 135.679 93.3391 135.926 92.5336 135.986C91.7281 136.046 90.9194 135.916 90.1809 135.61L48.5 118.292L6.8191 135.61C6.08064 135.916 5.27191 136.046 4.46639 135.986C3.66088 135.926 2.88408 135.679 2.2066 135.267C1.52912 134.856 0.972421 134.292 0.587061 133.629C0.2017 132.965 -9.73323e-05 132.221 1.88283e-06 131.466L7.23308e-06 9.06662L0.361946 9.06662L0.361946 -4.22418e-06L92.15 -2.12e-07Z" fill="#EFD371"/>
</svg>
