<svg width="27" height="24" viewBox="0 0 27 24" fill="none" xmlns="http://www.w3.org/2000/svg">
<g clip-path="url(#clip0_158_4165)">
<path d="M26.429 12.0735C26.429 5.40454 20.662 -0.00146484 13.5491 -0.00146484C6.43298 3.51563e-05 0.666016 5.40454 0.666016 12.075C0.666016 18.1005 5.37683 23.0955 11.5334 24.0015V15.564H8.26514V12.075H11.5366V9.41253C11.5366 6.38703 13.4606 4.71603 16.402 4.71603C17.8123 4.71603 19.2855 4.95154 19.2855 4.95154V7.92154H17.661C16.0623 7.92154 15.5632 8.85303 15.5632 9.80853V12.0735H19.1341L18.5642 15.5625H15.5616V24C21.7182 23.094 26.429 18.099 26.429 12.0735Z" fill="#059BE5"/>
</g>
<defs>
<clipPath id="clip0_158_4165">
<rect x="0.668945" width="25.7598" height="24" rx="12" fill="white"/>
</clipPath>
</defs>
</svg>
