<svg width="99" height="119" viewBox="0 0 99 119" fill="none" xmlns="http://www.w3.org/2000/svg">
<g filter="url(#filter0_d_57_848)">
<path d="M48.5506 66.2395C49.191 65.9018 49.9563 65.8991 50.5991 66.2324L79.8877 81.4199C81.4781 82.2446 81.4781 84.5194 79.8877 85.3441L50.5991 100.532C49.9563 100.865 49.191 100.862 48.5506 100.524L19.7541 85.337C18.1819 84.5078 18.1819 82.2562 19.7541 81.427L48.5506 66.2395Z" fill="black" fill-opacity="0.01"/>
</g>
<path d="M11.6846 28.9725C11.6846 25.0292 13.7858 21.3846 17.1985 19.4087L44.3224 3.70485C47.7475 1.72182 51.9716 1.72182 55.3967 3.70484L82.5206 19.4087C85.9333 21.3846 88.0345 25.0292 88.0345 28.9725V60.4339C88.0345 64.3773 85.9333 68.0219 82.5206 69.9977L55.3967 85.7016C51.9716 87.6846 47.7475 87.6846 44.3224 85.7016L17.1985 69.9977C13.7858 68.0219 11.6846 64.3773 11.6846 60.4339V28.9725Z" fill="#E3FFF1"/>
<path d="M15.3198 30.7724C15.3198 26.8514 17.3974 23.2241 20.7795 21.2402L44.2677 7.46235C47.7202 5.43713 51.998 5.43713 55.4505 7.46235L78.9387 21.2402C82.3208 23.2241 84.3984 26.8514 84.3984 30.7724V58.6337C84.3984 62.5546 82.3208 66.182 78.9387 68.1658L55.4505 81.9437C51.998 83.9689 47.7202 83.9689 44.2677 81.9437L20.7795 68.1658C17.3974 66.182 15.3198 62.5546 15.3198 58.6337V30.7724Z" fill="#57EBA1"/>
<path d="M49.8599 48.1331C49.8599 43.9009 52.2769 40.0404 56.084 38.1919L79.1065 27.0133C81.553 25.8254 84.3991 27.6073 84.3991 30.3271V58.6344C84.3991 62.5553 82.3215 66.1827 78.9395 68.1665L55.4074 81.9702C52.9517 83.4107 49.8599 81.6398 49.8599 78.7928L49.8599 64.964L49.8599 48.1331Z" fill="#39D98A"/>
<path d="M15.3198 30.3353C15.3198 27.6135 18.17 25.8316 20.6169 27.0237L43.6482 38.2444C47.4481 40.0956 49.8591 43.9522 49.8591 48.1791V77.3728C49.8591 77.3728 49.8889 80.0343 50.5008 80.9301C51.0252 81.6979 51.8683 82.2286 52.6308 82.3944C53.7323 82.6339 54.8631 82.2674 54.8631 82.2674C51.7748 84.092 47.9398 84.098 44.8458 82.2831L20.7795 68.1661C17.3974 66.1822 15.3198 62.5549 15.3198 58.6339V30.3353Z" fill="#06C270"/>
<defs>
<filter id="filter0_d_57_848" x="0.893513" y="48.3026" width="97.8687" height="70.1588" filterUnits="userSpaceOnUse" color-interpolation-filters="sRGB">
<feFlood flood-opacity="0" result="BackgroundImageFix"/>
<feColorMatrix in="SourceAlpha" type="matrix" values="0 0 0 0 0 0 0 0 0 0 0 0 0 0 0 0 0 0 127 0" result="hardAlpha"/>
<feOffset/>
<feGaussianBlur stdDeviation="8.84084"/>
<feColorMatrix type="matrix" values="0 0 0 0 0.027451 0 0 0 0 0.870588 0 0 0 0 0.501961 0 0 0 0.4 0"/>
<feBlend mode="normal" in2="BackgroundImageFix" result="effect1_dropShadow_57_848"/>
<feBlend mode="normal" in="SourceGraphic" in2="effect1_dropShadow_57_848" result="shape"/>
</filter>
</defs>
</svg>
