<svg width="99" height="119" viewBox="0 0 99 119" fill="none" xmlns="http://www.w3.org/2000/svg">
<g filter="url(#filter0_d_57_842)">
<path d="M48.4099 66.2395C49.0504 65.9018 49.8157 65.8991 50.4584 66.2324L79.7471 81.4199C81.3375 82.2446 81.3375 84.5194 79.7471 85.3441L50.4584 100.532C49.8157 100.865 49.0504 100.862 48.4099 100.524L19.6135 85.337C18.0413 84.5078 18.0413 82.2562 19.6135 81.427L48.4099 66.2395Z" fill="black" fill-opacity="0.01"/>
</g>
<path d="M11.5439 28.9725C11.5439 25.0292 13.6452 21.3846 17.0579 19.4087L44.1818 3.70485C47.6069 1.72182 51.831 1.72182 55.2561 3.70484L82.38 19.4087C85.7927 21.3846 87.8939 25.0292 87.8939 28.9725V60.4339C87.8939 64.3773 85.7927 68.0219 82.38 69.9977L55.2561 85.7016C51.831 87.6846 47.6069 87.6846 44.1818 85.7016L17.0579 69.9977C13.6452 68.0219 11.5439 64.3773 11.5439 60.4339V28.9725Z" fill="#FFF8E6"/>
<path d="M15.1797 30.7724C15.1797 26.8514 17.2573 23.2241 20.6393 21.2402L44.1275 7.46235C47.5801 5.43713 51.8578 5.43713 55.3104 7.46235L78.7986 21.2402C82.1806 23.2241 84.2582 26.8514 84.2582 30.7724V58.6337C84.2582 62.5546 82.1806 66.182 78.7986 68.1658L55.3104 81.9437C51.8578 83.9689 47.5801 83.9689 44.1275 81.9437L20.6393 68.1658C17.2573 66.182 15.1797 62.5546 15.1797 58.6337V30.7724Z" fill="#FCCC75"/>
<path d="M49.7192 48.1331C49.7192 43.9009 52.1363 40.0404 55.9434 38.1919L78.9659 27.0133C81.4124 25.8254 84.2585 27.6073 84.2585 30.3271V58.6344C84.2585 62.5553 82.1809 66.1827 78.7989 68.1665L55.2667 81.9702C52.811 83.4107 49.7192 81.6398 49.7192 78.7928L49.7192 64.964L49.7192 48.1331Z" fill="#FDAC42"/>
<path d="M15.1797 30.3353C15.1797 27.6135 18.0299 25.8316 20.4767 27.0237L43.508 38.2444C47.3079 40.0956 49.719 43.9522 49.719 48.1791V77.3728C49.719 77.3728 49.7487 80.0343 50.3606 80.9301C50.8851 81.6979 51.7281 82.2286 52.4907 82.3944C53.5922 82.6339 54.723 82.2674 54.723 82.2674C51.6347 84.092 47.7997 84.098 44.7057 82.2831L20.6393 68.1661C17.2573 66.1822 15.1797 62.5549 15.1797 58.6339V30.3353Z" fill="#FF8800"/>
<defs>
<filter id="filter0_d_57_842" x="0.752888" y="48.3026" width="97.8687" height="70.1588" filterUnits="userSpaceOnUse" color-interpolation-filters="sRGB">
<feFlood flood-opacity="0" result="BackgroundImageFix"/>
<feColorMatrix in="SourceAlpha" type="matrix" values="0 0 0 0 0 0 0 0 0 0 0 0 0 0 0 0 0 0 127 0" result="hardAlpha"/>
<feOffset/>
<feGaussianBlur stdDeviation="8.84084"/>
<feColorMatrix type="matrix" values="0 0 0 0 1 0 0 0 0 0.533333 0 0 0 0 0 0 0 0 0.4 0"/>
<feBlend mode="normal" in2="BackgroundImageFix" result="effect1_dropShadow_57_842"/>
<feBlend mode="normal" in="SourceGraphic" in2="effect1_dropShadow_57_842" result="shape"/>
</filter>
</defs>
</svg>
