<svg width="98" height="119" viewBox="0 0 98 119" fill="none" xmlns="http://www.w3.org/2000/svg">
<g filter="url(#filter0_d_57_830)">
<path d="M47.7005 66.2395C48.3409 65.9018 49.1062 65.8991 49.749 66.2324L79.0377 81.4199C80.628 82.2446 80.628 84.5194 79.0377 85.3441L49.749 100.532C49.1062 100.865 48.3409 100.862 47.7005 100.524L18.904 85.337C17.3318 84.5078 17.3318 82.2562 18.904 81.427L47.7005 66.2395Z" fill="black" fill-opacity="0.01"/>
</g>
<path d="M10.8345 28.9725C10.8345 25.0292 12.9357 21.3846 16.3484 19.4087L43.4723 3.70485C46.8974 1.72182 51.1215 1.72182 54.5466 3.70484L81.6705 19.4087C85.0832 21.3846 87.1844 25.0292 87.1844 28.9725V60.4339C87.1844 64.3773 85.0832 68.0219 81.6705 69.9977L54.5466 85.7016C51.1215 87.6846 46.8974 87.6846 43.4723 85.7016L16.3484 69.9977C12.9357 68.0219 10.8345 64.3773 10.8345 60.4339V28.9725Z" fill="#FFE6FF"/>
<path d="M14.4702 30.7724C14.4702 26.8514 16.5478 23.2241 19.9298 21.2402L43.4181 7.46235C46.8706 5.43713 51.1484 5.43713 54.6009 7.46235L78.0891 21.2402C81.4711 23.2241 83.5488 26.8514 83.5488 30.7724V58.6337C83.5488 62.5546 81.4711 66.182 78.0891 68.1658L54.6009 81.9437C51.1484 83.9689 46.8706 83.9689 43.4181 81.9437L19.9298 68.1658C16.5478 66.182 14.4702 62.5546 14.4702 58.6337V30.7724Z" fill="#DDA5E9"/>
<path d="M49.0098 48.1331C49.0098 43.9009 51.4268 40.0404 55.2339 38.1919L78.2564 27.0133C80.7029 25.8254 83.549 27.6073 83.549 30.3271V58.6344C83.549 62.5553 81.4714 66.1827 78.0894 68.1665L54.5573 81.9702C52.1016 83.4107 49.0098 81.6398 49.0098 78.7928L49.0098 64.964L49.0098 48.1331Z" fill="#AC5DD9"/>
<path d="M14.4702 30.3353C14.4702 27.6135 17.3204 25.8316 19.7673 27.0237L42.7986 38.2444C46.5984 40.0956 49.0095 43.9522 49.0095 48.1791V77.3728C49.0095 77.3728 49.0392 80.0343 49.6511 80.9301C50.1756 81.6979 51.0187 82.2286 51.7812 82.3944C52.8827 82.6339 54.0135 82.2674 54.0135 82.2674C50.9252 84.092 47.0902 84.098 43.9962 82.2831L19.9298 68.1661C16.5478 66.1822 14.4702 62.5549 14.4702 58.6339V30.3353Z" fill="#6600CC"/>
<defs>
<filter id="filter0_d_57_830" x="0.0434151" y="48.3026" width="97.8687" height="70.1588" filterUnits="userSpaceOnUse" color-interpolation-filters="sRGB">
<feFlood flood-opacity="0" result="BackgroundImageFix"/>
<feColorMatrix in="SourceAlpha" type="matrix" values="0 0 0 0 0 0 0 0 0 0 0 0 0 0 0 0 0 0 127 0" result="hardAlpha"/>
<feOffset/>
<feGaussianBlur stdDeviation="8.84084"/>
<feColorMatrix type="matrix" values="0 0 0 0 0.4 0 0 0 0 0 0 0 0 0 0.8 0 0 0 0.4 0"/>
<feBlend mode="normal" in2="BackgroundImageFix" result="effect1_dropShadow_57_830"/>
<feBlend mode="normal" in="SourceGraphic" in2="effect1_dropShadow_57_830" result="shape"/>
</filter>
</defs>
</svg>
