<svg width="99" height="119" viewBox="0 0 99 119" fill="none" xmlns="http://www.w3.org/2000/svg">
<g filter="url(#filter0_d_57_812)">
<path d="M48.1204 66.2395C48.7608 65.9018 49.5261 65.8991 50.1689 66.2324L79.4576 81.4199C81.0479 82.2446 81.0479 84.5194 79.4576 85.3441L50.1689 100.532C49.5261 100.865 48.7608 100.862 48.1204 100.524L19.3239 85.337C17.7518 84.5078 17.7518 82.2562 19.3239 81.427L48.1204 66.2395Z" fill="black" fill-opacity="0.01"/>
</g>
<path d="M11.2544 28.9725C11.2544 25.0292 13.3557 21.3846 16.7683 19.4087L43.8923 3.70485C47.3173 1.72182 51.5414 1.72182 54.9665 3.70484L82.0904 19.4087C85.5031 21.3846 87.6044 25.0292 87.6044 28.9725V60.4339C87.6044 64.3773 85.5031 68.0219 82.0904 69.9977L54.9665 85.7016C51.5414 87.6846 47.3174 87.6846 43.8923 85.7016L16.7683 69.9977C13.3557 68.0219 11.2544 64.3773 11.2544 60.4339V28.9725Z" fill="#FFE6E6"/>
<path d="M14.8896 30.7724C14.8896 26.8514 16.9673 23.2241 20.3493 21.2402L43.8375 7.46235C47.29 5.43713 51.5678 5.43713 55.0203 7.46235L78.5086 21.2402C81.8906 23.2241 83.9682 26.8514 83.9682 30.7724V58.6337C83.9682 62.5546 81.8906 66.182 78.5086 68.1658L55.0203 81.9437C51.5678 83.9689 47.29 83.9689 43.8375 81.9437L20.3493 68.1658C16.9673 66.182 14.8896 62.5546 14.8896 58.6337V30.7724Z" fill="#FF8080"/>
<path d="M49.4292 48.1331C49.4292 43.9009 51.8462 40.0404 55.6533 38.1919L78.6758 27.0133C81.1224 25.8254 83.9685 27.6073 83.9685 30.3271V58.6344C83.9685 62.5553 81.8909 66.1827 78.5088 68.1665L54.9767 81.9702C52.521 83.4107 49.4292 81.6398 49.4292 78.7928L49.4292 64.964L49.4292 48.1331Z" fill="#FF5C5C"/>
<path d="M14.8896 30.3353C14.8896 27.6135 17.7398 25.8316 20.1867 27.0237L43.218 38.2444C47.0179 40.0956 49.4289 43.9522 49.4289 48.1791V77.3728C49.4289 77.3728 49.4587 80.0343 50.0706 80.9301C50.595 81.6979 51.4381 82.2286 52.2007 82.3944C53.3022 82.6339 54.433 82.2674 54.433 82.2674C51.3446 84.092 47.5097 84.098 44.4156 82.2831L20.3493 68.1661C16.9673 66.1822 14.8896 62.5549 14.8896 58.6339V30.3353Z" fill="#FF3B3B"/>
<defs>
<filter id="filter0_d_57_812" x="0.463093" y="48.3026" width="97.869" height="70.1588" filterUnits="userSpaceOnUse" color-interpolation-filters="sRGB">
<feFlood flood-opacity="0" result="BackgroundImageFix"/>
<feColorMatrix in="SourceAlpha" type="matrix" values="0 0 0 0 0 0 0 0 0 0 0 0 0 0 0 0 0 0 127 0" result="hardAlpha"/>
<feOffset/>
<feGaussianBlur stdDeviation="8.84084"/>
<feColorMatrix type="matrix" values="0 0 0 0 1 0 0 0 0 0.231373 0 0 0 0 0.231373 0 0 0 0.4 0"/>
<feBlend mode="normal" in2="BackgroundImageFix" result="effect1_dropShadow_57_812"/>
<feBlend mode="normal" in="SourceGraphic" in2="effect1_dropShadow_57_812" result="shape"/>
</filter>
</defs>
</svg>
