<svg width="99" height="119" viewBox="0 0 99 119" fill="none" xmlns="http://www.w3.org/2000/svg">
<g filter="url(#filter0_d_57_818)">
<path d="M47.8396 66.2395C48.4801 65.9018 49.2453 65.8991 49.8881 66.2324L79.1768 81.4199C80.7672 82.2446 80.7672 84.5194 79.1768 85.3441L49.8881 100.532C49.2453 100.865 48.4801 100.862 47.8396 100.524L19.0432 85.337C17.471 84.5078 17.471 82.2562 19.0432 81.427L47.8396 66.2395Z" fill="black" fill-opacity="0.01"/>
</g>
<path d="M10.9736 28.9725C10.9736 25.0292 13.0749 21.3846 16.4876 19.4087L43.6115 3.70485C47.0366 1.72182 51.2606 1.72182 54.6857 3.70484L81.8097 19.4087C85.2223 21.3846 87.3236 25.0292 87.3236 28.9725V60.4339C87.3236 64.3773 85.2223 68.0219 81.8097 69.9977L54.6857 85.7016C51.2607 87.6846 47.0366 87.6846 43.6115 85.7016L16.4876 69.9977C13.0749 68.0219 10.9736 64.3773 10.9736 60.4339V28.9725Z" fill="#FFFEE6"/>
<path d="M14.6089 30.7724C14.6089 26.8514 16.6865 23.2241 20.0685 21.2402L43.5567 7.46235C47.0093 5.43713 51.287 5.43713 54.7396 7.46235L78.2278 21.2402C81.6098 23.2241 83.6874 26.8514 83.6874 30.7724V58.6337C83.6874 62.5546 81.6098 66.182 78.2278 68.1658L54.7396 81.9437C51.287 83.9689 47.0093 83.9689 43.5567 81.9437L20.0685 68.1658C16.6865 66.182 14.6089 62.5546 14.6089 58.6337V30.7724Z" fill="#FDED72"/>
<path d="M49.1484 48.1331C49.1484 43.9009 51.5655 40.0404 55.3726 38.1919L78.3951 27.0133C80.8416 25.8254 83.6877 27.6073 83.6877 30.3271V58.6344C83.6877 62.5553 81.6101 66.1827 78.2281 68.1665L54.6959 81.9702C52.2402 83.4107 49.1484 81.6398 49.1484 78.7928L49.1484 64.964L49.1484 48.1331Z" fill="#FDDD48"/>
<path d="M14.6089 30.3353C14.6089 27.6135 17.4591 25.8316 19.9059 27.0237L42.9372 38.2444C46.7371 40.0956 49.1482 43.9522 49.1482 48.1791V77.3728C49.1482 77.3728 49.1779 80.0343 49.7898 80.9301C50.3143 81.6979 51.1573 82.2286 51.9199 82.3944C53.0214 82.6339 54.1522 82.2674 54.1522 82.2674C51.0639 84.092 47.2289 84.098 44.1349 82.2831L20.0685 68.1661C16.6865 66.1822 14.6089 62.5549 14.6089 58.6339V30.3353Z" fill="#FFCC00"/>
<defs>
<filter id="filter0_d_57_818" x="0.182575" y="48.3026" width="97.8687" height="70.1588" filterUnits="userSpaceOnUse" color-interpolation-filters="sRGB">
<feFlood flood-opacity="0" result="BackgroundImageFix"/>
<feColorMatrix in="SourceAlpha" type="matrix" values="0 0 0 0 0 0 0 0 0 0 0 0 0 0 0 0 0 0 127 0" result="hardAlpha"/>
<feOffset/>
<feGaussianBlur stdDeviation="8.84084"/>
<feColorMatrix type="matrix" values="0 0 0 0 1 0 0 0 0 0.8 0 0 0 0 0 0 0 0 0.4 0"/>
<feBlend mode="normal" in2="BackgroundImageFix" result="effect1_dropShadow_57_818"/>
<feBlend mode="normal" in="SourceGraphic" in2="effect1_dropShadow_57_818" result="shape"/>
</filter>
</defs>
</svg>
