<svg width="99" height="119" viewBox="0 0 99 119" fill="none" xmlns="http://www.w3.org/2000/svg">
<g filter="url(#filter0_d_57_836)">
<path d="M47.9802 66.2395C48.6207 65.9018 49.386 65.8991 50.0288 66.2324L79.3174 81.4199C80.9078 82.2446 80.9078 84.5194 79.3174 85.3441L50.0288 100.532C49.386 100.865 48.6207 100.862 47.9802 100.524L19.1838 85.337C17.6116 84.5078 17.6116 82.2562 19.1838 81.427L47.9802 66.2395Z" fill="black" fill-opacity="0.01"/>
</g>
<path d="M11.1143 28.9725C11.1143 25.0292 13.2155 21.3846 16.6282 19.4087L43.7521 3.70485C47.1772 1.72182 51.4013 1.72182 54.8264 3.70484L81.9503 19.4087C85.363 21.3846 87.4642 25.0292 87.4642 28.9725V60.4339C87.4642 64.3773 85.363 68.0219 81.9503 69.9977L54.8264 85.7016C51.4013 87.6846 47.1772 87.6846 43.7521 85.7016L16.6282 69.9977C13.2155 68.0219 11.1143 64.3773 11.1143 60.4339V28.9725Z" fill="#E5F0FF"/>
<path d="M14.7495 30.7724C14.7495 26.8514 16.8271 23.2241 20.2091 21.2402L43.6974 7.46235C47.1499 5.43713 51.4277 5.43713 54.8802 7.46235L78.3684 21.2402C81.7504 23.2241 83.828 26.8514 83.828 30.7724V58.6337C83.828 62.5546 81.7504 66.182 78.3684 68.1658L54.8802 81.9437C51.4277 83.9689 47.1499 83.9689 43.6974 81.9437L20.2091 68.1658C16.8271 66.182 14.7495 62.5546 14.7495 58.6337V30.7724Z" fill="#9DBFF9"/>
<path d="M49.2891 48.1331C49.2891 43.9009 51.7061 40.0404 55.5132 38.1919L78.5357 27.0133C80.9822 25.8254 83.8283 27.6073 83.8283 30.3271V58.6344C83.8283 62.5553 81.7507 66.1827 78.3687 68.1665L54.8366 81.9702C52.3809 83.4107 49.2891 81.6398 49.2891 78.7928L49.2891 64.964L49.2891 48.1331Z" fill="#5B8DEF"/>
<path d="M14.7495 30.3353C14.7495 27.6135 17.5997 25.8316 20.0466 27.0237L43.0779 38.2444C46.8777 40.0956 49.2888 43.9522 49.2888 48.1791V77.3728C49.2888 77.3728 49.3185 80.0343 49.9304 80.9301C50.4549 81.6979 51.2979 82.2286 52.0605 82.3944C53.162 82.6339 54.2928 82.2674 54.2928 82.2674C51.2045 84.092 47.3695 84.098 44.2755 82.2831L20.2091 68.1661C16.8271 66.1822 14.7495 62.5549 14.7495 58.6339V30.3353Z" fill="#0063F7"/>
<defs>
<filter id="filter0_d_57_836" x="0.3232" y="48.3026" width="97.8687" height="70.1588" filterUnits="userSpaceOnUse" color-interpolation-filters="sRGB">
<feFlood flood-opacity="0" result="BackgroundImageFix"/>
<feColorMatrix in="SourceAlpha" type="matrix" values="0 0 0 0 0 0 0 0 0 0 0 0 0 0 0 0 0 0 127 0" result="hardAlpha"/>
<feOffset/>
<feGaussianBlur stdDeviation="8.84084"/>
<feColorMatrix type="matrix" values="0 0 0 0 0 0 0 0 0 0.34902 0 0 0 0 0.870588 0 0 0 0.4 0"/>
<feBlend mode="normal" in2="BackgroundImageFix" result="effect1_dropShadow_57_836"/>
<feBlend mode="normal" in="SourceGraphic" in2="effect1_dropShadow_57_836" result="shape"/>
</filter>
</defs>
</svg>
