<svg width="187" height="198" viewBox="0 0 187 198" fill="none" xmlns="http://www.w3.org/2000/svg">
<rect x="185.373" y="58.498" width="1.09071" height="45.3093" fill="#3E7BFA"/>
<g filter="url(#filter0_d_121_534)">
<path d="M87.9066 105.44C88.5418 105.109 89.2979 105.106 89.9353 105.433L141.176 131.678C142.78 132.499 142.78 134.791 141.176 135.612L89.9353 161.857C89.2979 162.184 88.5418 162.181 87.9066 161.85L37.5269 135.605C35.9415 134.779 35.9415 132.511 37.5269 131.685L87.9066 105.44Z" fill="black" fill-opacity="0.01"/>
</g>
<path d="M87.8762 64.0468C88.3908 63.7445 89.0283 63.7421 89.5452 64.0407L166.514 108.505C167.619 109.143 167.619 110.738 166.514 111.376L89.5452 155.84C89.0283 156.139 88.3909 156.136 87.8762 155.834L12.2009 111.37C11.1103 110.729 11.1103 109.152 12.2009 108.511L87.8762 64.0468Z" stroke="#3E7BFA" stroke-width="1.10511" stroke-linecap="round" stroke-linejoin="round"/>
<path d="M28.311 40.7553C28.311 37.6439 29.9465 34.7616 32.6175 33.1659L84.8155 1.97933C87.6299 0.29782 91.1437 0.311818 93.9446 2.0157L145.134 33.1558C147.771 34.7597 149.38 37.6226 149.38 40.7088V102.569C149.38 105.698 147.726 108.594 145.031 110.184L93.8427 140.38C91.0926 142.002 87.6816 142.016 84.9189 140.415L32.7199 110.173C29.9911 108.592 28.311 105.677 28.311 102.523V40.7553Z" fill="#CCDDFF"/>
<path d="M33.7642 43.9446C33.7642 40.8085 35.4256 37.9071 38.1304 36.3198L84.3706 9.18368C87.1334 7.56234 90.5571 7.56234 93.3198 9.18368L139.56 36.3198C142.265 37.9071 143.926 40.8085 143.926 43.9446V98.4682C143.926 101.604 142.265 104.506 139.56 106.093L93.3198 133.229C90.5571 134.85 87.1334 134.85 84.3706 133.229L38.1304 106.093C35.4256 104.506 33.7642 101.604 33.7642 98.4682V43.9446Z" fill="#6698FA"/>
<path d="M88.2998 78.8533C88.2998 72.0967 92.1504 65.9307 98.2216 62.9654L137.566 43.7492C140.502 42.3149 143.926 44.453 143.926 47.7211V99.0256C143.926 102.154 142.273 105.05 139.578 106.64L94.9666 132.963C92.0198 134.701 88.2998 132.577 88.2998 129.156L88.2998 102.968L88.2998 78.8533Z" fill="#3E7BFA"/>
<path d="M33.7642 46.6042C33.7642 43.3245 37.2101 41.1869 40.1483 42.6439L79.1935 62.0051C85.2125 64.9898 89.0201 71.1277 89.0201 77.8462V123.437C89.0201 123.437 89.0677 127.771 90.0466 129.23C90.8856 130.48 91.6537 130.868 92.6627 131.435C93.6717 132.002 95.9348 132.54 95.9348 132.54L93.4234 133.877C90.6904 135.332 87.3954 135.251 84.737 133.664L38.073 105.804C35.4007 104.209 33.7642 101.326 33.7642 98.2132V46.6042Z" fill="#3568D4"/>
<path d="M142.816 84.4647H185.38H142.816Z" fill="#3E7BFA"/>
<path d="M142.816 84.4647H185.38" stroke="#3E7BFA" stroke-width="1.10511" stroke-linecap="round" stroke-linejoin="round"/>
<defs>
<filter id="filter0_d_121_534" x="0.974525" y="69.8262" width="176.768" height="127.637" filterUnits="userSpaceOnUse" color-interpolation-filters="sRGB">
<feFlood flood-opacity="0" result="BackgroundImageFix"/>
<feColorMatrix in="SourceAlpha" type="matrix" values="0 0 0 0 0 0 0 0 0 0 0 0 0 0 0 0 0 0 127 0" result="hardAlpha"/>
<feOffset/>
<feGaussianBlur stdDeviation="17.6817"/>
<feColorMatrix type="matrix" values="0 0 0 0 0.207843 0 0 0 0 0.407843 0 0 0 0 0.831373 0 0 0 0.4 0"/>
<feBlend mode="normal" in2="BackgroundImageFix" result="effect1_dropShadow_121_534"/>
<feBlend mode="normal" in="SourceGraphic" in2="effect1_dropShadow_121_534" result="shape"/>
</filter>
</defs>
</svg>
