<svg width="99" height="119" viewBox="0 0 99 119" fill="none" xmlns="http://www.w3.org/2000/svg">
<g filter="url(#filter0_d_57_824)">
<path d="M48.2698 66.2395C48.9102 65.9018 49.6755 65.8991 50.3183 66.2324L79.607 81.4199C81.1973 82.2446 81.1973 84.5194 79.607 85.3441L50.3183 100.532C49.6755 100.865 48.9102 100.862 48.2698 100.524L19.4734 85.337C17.9012 84.5078 17.9012 82.2562 19.4734 81.427L48.2698 66.2395Z" fill="black" fill-opacity="0.01"/>
</g>
<path d="M11.4038 28.9725C11.4038 25.0292 13.5051 21.3846 16.9177 19.4087L44.0417 3.70485C47.4668 1.72182 51.6908 1.72182 55.1159 3.70484L82.2399 19.4087C85.6525 21.3846 87.7538 25.0292 87.7538 28.9725V60.4339C87.7538 64.3773 85.6525 68.0219 82.2399 69.9977L55.1159 85.7016C51.6908 87.6846 47.4668 87.6846 44.0417 85.7016L16.9177 69.9977C13.5051 68.0219 11.4038 64.3773 11.4038 60.4339V28.9725Z" fill="#E6FFFF"/>
<path d="M15.0396 30.7724C15.0396 26.8514 17.1172 23.2241 20.4992 21.2402L43.9874 7.46235C47.4399 5.43713 51.7177 5.43713 55.1702 7.46235L78.6585 21.2402C82.0405 23.2241 84.1181 26.8514 84.1181 30.7724V58.6337C84.1181 62.5546 82.0405 66.182 78.6585 68.1658L55.1702 81.9437C51.7177 83.9689 47.4399 83.9689 43.9874 81.9437L20.4992 68.1658C17.1172 66.182 15.0396 62.5546 15.0396 58.6337V30.7724Z" fill="#A9EFF2"/>
<path d="M49.5781 48.1331C49.5781 43.9009 51.9951 40.0404 55.8022 38.1919L78.8247 27.0133C81.2713 25.8254 84.1174 27.6073 84.1174 30.3271V58.6344C84.1174 62.5553 82.0398 66.1827 78.6578 68.1665L55.1256 81.9702C52.6699 83.4107 49.5781 81.6398 49.5781 78.7928L49.5781 64.964L49.5781 48.1331Z" fill="#73DFE7"/>
<path d="M15.0396 30.3353C15.0396 27.6135 17.8897 25.8316 20.3366 27.0237L43.3679 38.2444C47.1678 40.0956 49.5788 43.9522 49.5788 48.1791V77.3728C49.5788 77.3728 49.6086 80.0343 50.2205 80.9301C50.7449 81.6979 51.588 82.2286 52.3506 82.3944C53.4521 82.6339 54.5829 82.2674 54.5829 82.2674C51.4945 84.092 47.6596 84.098 44.5655 82.2831L20.4992 68.1661C17.1172 66.1822 15.0396 62.5549 15.0396 58.6339V30.3353Z" fill="#00CFDE"/>
<defs>
<filter id="filter0_d_57_824" x="0.612751" y="48.3026" width="97.8687" height="70.1588" filterUnits="userSpaceOnUse" color-interpolation-filters="sRGB">
<feFlood flood-opacity="0" result="BackgroundImageFix"/>
<feColorMatrix in="SourceAlpha" type="matrix" values="0 0 0 0 0 0 0 0 0 0 0 0 0 0 0 0 0 0 127 0" result="hardAlpha"/>
<feOffset/>
<feGaussianBlur stdDeviation="8.84084"/>
<feColorMatrix type="matrix" values="0 0 0 0 0 0 0 0 0 0.811765 0 0 0 0 0.870588 0 0 0 0.4 0"/>
<feBlend mode="normal" in2="BackgroundImageFix" result="effect1_dropShadow_57_824"/>
<feBlend mode="normal" in="SourceGraphic" in2="effect1_dropShadow_57_824" result="shape"/>
</filter>
</defs>
</svg>
