<svg width="182" height="182" viewBox="0 0 182 182" fill="none" xmlns="http://www.w3.org/2000/svg">
<path d="M27.1135 30.6365L32.9076 32.5678C36.5254 33.7738 39.8129 35.8055 42.5095 38.5021C47.1163 43.109 49.7044 49.3572 49.7044 55.8722V56.9925M49.7044 109.705V56.9925M49.7044 56.9925L61.8905 41.76C63.7954 39.3788 66.0565 37.3058 68.5938 35.6143C73.4625 32.3685 79.1829 30.6365 85.0344 30.6365H88.7736C92.7934 30.6365 96.7581 31.5724 100.354 33.3702L102.295 34.3409C107.194 36.7906 110.92 41.0861 112.652 46.2827C113.354 48.3886 113.712 50.5939 113.712 52.8138V99.6814C113.712 101.341 113.849 102.997 114.122 104.633L115.95 115.601C116.371 118.126 117.121 120.568 118.171 122.87M118.171 122.87L123.617 115.381C124.543 114.109 125.566 112.911 126.679 111.799L130.679 107.799C134.28 104.197 139.164 102.174 144.257 102.174H144.47C151.083 102.174 157.21 105.644 160.613 111.314C164.19 117.276 164.19 124.724 160.613 130.686C157.21 136.356 151.083 139.826 144.47 139.826H142.082C135.971 139.826 130.11 137.398 125.789 133.077L124.047 131.335C121.584 128.872 119.6 126.001 118.171 122.87ZM118.171 122.87L97.4023 151.427C95.7492 153.7 93.574 155.543 91.0601 156.8C88.6241 158.018 85.9381 158.652 83.2146 158.652H68.5302" stroke="#6427A0" stroke-width="7.5303" stroke-linecap="round"/>
</svg>
