<svg width="182" height="182" viewBox="0 0 182 182" fill="none" xmlns="http://www.w3.org/2000/svg">
<path d="M117.235 113.712C117.235 111.633 118.921 109.947 121 109.947H120.765C130.145 101.668 136.061 89.5551 136.061 76.0605C136.061 51.1073 115.832 30.8787 90.8792 30.8787C65.926 30.8787 45.6973 51.1073 45.6973 76.0605C45.6973 89.5551 51.6134 101.668 60.9934 109.947H60.7579C62.8373 109.947 64.5231 111.633 64.5231 113.712C64.5231 115.791 62.8373 117.477 60.7579 117.477H30.6367C28.5573 117.477 26.8716 115.791 26.8716 113.712C26.8716 111.633 28.5573 109.947 30.6367 109.947H50.5009C42.8034 100.784 38.167 88.9638 38.167 76.0605C38.167 46.9484 61.767 23.3484 90.8792 23.3484C119.991 23.3484 143.591 46.9484 143.591 76.0605C143.591 88.9638 138.955 100.784 131.257 109.947H151.122C153.201 109.947 154.887 111.633 154.887 113.712C154.887 115.791 153.201 117.477 151.122 117.477H121C118.921 117.477 117.235 115.791 117.235 113.712Z" fill="#6427A0"/>
<path d="M30.6367 140.068C28.5573 140.068 26.8716 141.754 26.8716 143.833C26.8716 145.913 28.5573 147.598 30.6367 147.598H151.122C153.201 147.598 154.887 145.913 154.887 143.833C154.887 141.754 153.201 140.068 151.122 140.068H30.6367Z" fill="#6427A0"/>
</svg>
